<?xml version="1.0" encoding="utf-8"?>
<!-- Generator: Adobe Illustrator 18.1.1, SVG Export Plug-In . SVG Version: 6.00 Build 0)  -->
<svg version="1.1" xmlns="http://www.w3.org/2000/svg" xmlns:xlink="http://www.w3.org/1999/xlink" x="0px" y="0px"
	 viewBox="-410.4 313 900 900" enable-background="new -410.4 313 900 900" xml:space="preserve">
<g id="Layer_1" display="none">
	<g display="inline">
		<g>
			<defs>
				<circle id="SVGID_1_" cx="40.6" cy="764.6" r="427.8"/>
			</defs>
			<clipPath id="SVGID_2_">
				<use xlink:href="#SVGID_1_"  overflow="visible"/>
			</clipPath>
			<g clip-path="url(#SVGID_2_)">
				<g>
					<circle fill="#FFA500" cx="40.6" cy="764.6" r="29.9"/>
				</g>
				<g opacity="0.2">
					<circle fill="none" cx="40.6" cy="764.6" r="134.4"/>
				</g>
				<g>
					<path fill="#FFA500" d="M101.6,676.8c-15.3-10.7-32.7-17-51.8-18.7l-5.4-0.5c2,0.2,3.9,0.4,5.9,0.6l53.3-639.5
						c1.2,0.1,2.4,0.2,3.5,0.3c130.5,11.7,256.1,57.4,363,132.5L101.6,676.8z"/>
				</g>
				<g>
					<path fill="#FFA500" d="M771.4,926.7L145.1,787.5c1.6-7.4,2.5-14.9,2.5-22.5c0-6.3-0.6-12.7-1.7-19.1l0.2-2.6l631.6-109.6
						l0.1,0.7c7.6,43.2,11.4,87,11.4,130.5C789.2,819.3,783.2,873.7,771.4,926.7z"/>
				</g>
				<g>
					<path fill="#FFA500" d="M188.7,797.2l-87.5-19.5c0.5-2.3,1-5.4,1.2-7.7c0.2-1.8,0.2-3.7,0.2-5.5c0-31.9-24.9-59-56.7-61.8
						l7.8-89.3c79,6.9,138.5,71.9,138.5,151c0,4.4-0.2,8.9-0.6,13.3C191.2,783.5,189.8,791.7,188.7,797.2z"/>
				</g>
				<g>
					<path fill="#FFA500" d="M-32.8,563.7L-180.1,162l71.3,194.6l-73.6-193.7l3.4-1.3c70.8-25.8,144.6-38.8,219.4-38.8v427.8
						c-24.6,0-48.9,4.3-72.5,12.8L-32.8,563.7z"/>
				</g>
				<g>
					<path fill="#FFA500" d="M134.2,572.3c-29.1-14.2-61.5-21.7-93.7-21.7c-24.9,0-49.5,4.4-73.1,13l-25.5-70.2
						c31.8-11.6,65-17.5,98.7-17.5c43.4,0,87.1,10.1,126.4,29.2L134.2,572.3z"/>
				</g>
				<g>
					<path fill="#FFA500" d="M230.2,791.1l-14.8-2c0.4-3,0.8-6,1-9c0.5-5.2,0.7-10.4,0.7-15.6c0-90.6-70.8-167.8-161.2-175.7
						l1.3-14.9c98,8.6,174.8,92.3,174.8,190.6c0,5.6-0.2,11.3-0.7,16.9C231,784.6,230.6,787.9,230.2,791.1z"/>
				</g>
				<g>
					<path fill="#FFA500" d="M40,1341.7c-153.5,0-298.1-59.9-407.2-168.7l210.9-211.5c52,51.8,123.6,81.6,196.4,81.6
						c16.2,0,32.6-1.5,48.8-4.3C222.2,1015.2,319,900.1,319,765c0-16-1.4-32.3-4.2-48.3c-0.2-0.9-0.3-1.8-0.5-2.7l294.6-49.1
						L464.6,689l143.7-27.6l0.6,3c5.9,33.3,8.8,67.1,8.8,100.7c0,280.3-200.6,519.1-477,567.8C107.4,1338.7,73.5,1341.7,40,1341.7z"
						/>
				</g>
				<g>
					<path fill="#FFA500" d="M-238.4,1424.4l-12.5-5.2c-84.7-37.7-160.1-90.5-224.1-156.8l415.6-401c11.8,12.2,25.7,22.1,41.5,29.4
						l3.4,1.5L-133,1155.7L-238.4,1424.4z"/>
				</g>
				<g>
					<path fill="#FFA500" d="M-559.7,1155.8l-0.6-1l0,0c-50.5-77.7-85-163-102.5-253.6l566.9-110c3.4,17.3,10.1,33.9,20,49.1
						l1.4,2.2L-274.9,970L-559.7,1155.8z"/>
				</g>
				<g>
					<path fill="#FFA500" d="M-32.1,927.8c-50-22.2-86.5-65.4-100.2-118.4l14.5-3.7c12.6,48.6,46.1,88.1,91.9,108.5L-32.1,927.8z"/>
				</g>
				<g>
					<path fill="#FFA500" d="M-74,1022.1c-80.1-35.7-138.1-105.1-159.1-190.3l72.5-17.8c15.4,62.7,58,113.7,116.9,140L-74,1022.1z"
						/>
				</g>
				<g>
					<path fill="#FFA500" d="M-142.8,654.3l-43.9-26.4l-323.5-192.7l183.8,109.5l-183.7-109.6l0.6-1.1c23.1-38.4,50.2-74.4,80.5-107
						l313.1,291.4c-10,10.8-19,22.7-26.8,35.6l-0.1,0.2C-142.7,654.2-142.8,654.3-142.8,654.3z"/>
				</g>
				<g>
					<path fill="#FFA500" d="M-101.7,604.7l-139.7-163.7l-141.8-158.4l2.8-2.4c33.8-29.4,70.7-55.3,109.7-76.9L-63,577.3
						c-12.5,7-24.5,15.3-35.6,24.8L-101.7,604.7z"/>
				</g>
				<g>
					<path fill="#FFA500" d="M-221.7,607l-25.6-15.4c27.9-46.5,67.1-85.9,113.1-113.9l15.5,25.5C-160.6,528.7-196.2,564.6-221.7,607
						z"/>
				</g>
			</g>
		</g>
	</g>
</g>
<g id="Layer_1_copy">
	<g>
		<g>
			<defs>
				<circle id="SVGID_3_" cx="40.6" cy="764.6" r="427.8"/>
			</defs>
			<clipPath id="SVGID_4_">
				<use xlink:href="#SVGID_3_"  overflow="visible"/>
			</clipPath>
			<g clip-path="url(#SVGID_4_)">
				<g>
					<circle fill="#FFA500" cx="40.6" cy="764.6" r="29.9"/>
				</g>
				<g opacity="0.2">
					<circle fill="none" cx="40.6" cy="764.6" r="134.4"/>
				</g>
				<g>
					<path fill="#FFA500" d="M101.6,676.8c-15.3-10.7-32.7-17-51.8-18.7l-5.4-0.5c2,0.2,3.9,0.4,5.9,0.6l53.3-639.5
						c1.2,0.1,2.4,0.2,3.5,0.3c130.5,11.7,256.1,57.4,363,132.5L101.6,676.8z"/>
				</g>
				<g>
					<path fill="#FFA500" d="M771.4,926.7L145.1,787.5c1.6-7.4,2.5-14.9,2.5-22.5c0-6.3-0.6-12.7-1.7-19.1l0.2-2.6l631.6-109.6
						l0.1,0.7c7.6,43.2,11.4,87,11.4,130.5C789.2,819.3,783.2,873.7,771.4,926.7z"/>
				</g>
				<g>
					<path fill="#FFA500" d="M188.7,797.2l-87.5-19.5c0.5-2.3,1-5.4,1.2-7.7c0.2-1.8,0.2-3.7,0.2-5.5c0-31.9-24.9-59-56.7-61.8
						l7.8-89.3c79,6.9,138.5,71.9,138.5,151c0,4.4-0.2,8.9-0.6,13.3C191.2,783.5,189.8,791.7,188.7,797.2z"/>
				</g>
				<g>
					<path fill="#FFA500" d="M-32.8,563.7L-180.1,162l71.3,194.6l-73.6-193.7l3.4-1.3c70.8-25.8,144.6-38.8,219.4-38.8v427.8
						c-24.6,0-48.9,4.3-72.5,12.8L-32.8,563.7z"/>
				</g>
				<g>
					<path fill="#FFA500" d="M134.2,572.3c-29.1-14.2-61.5-21.7-93.7-21.7c-24.9,0-49.5,4.4-73.1,13l-25.5-70.2
						c31.8-11.6,65-17.5,98.7-17.5c43.4,0,87.1,10.1,126.4,29.2L134.2,572.3z"/>
				</g>
				<g>
					<path fill="#FFA500" d="M230.2,791.1l-14.8-2c0.4-3,0.8-6,1-9c0.5-5.2,0.7-10.4,0.7-15.6c0-90.6-70.8-167.8-161.2-175.7
						l1.3-14.9c98,8.6,174.8,92.3,174.8,190.6c0,5.6-0.2,11.3-0.7,16.9C231,784.6,230.6,787.9,230.2,791.1z"/>
				</g>
				<g>
					<path fill="#FFA500" d="M40,1341.7c-153.5,0-298.1-59.9-407.2-168.7l210.9-211.5c52,51.8,123.6,81.6,196.4,81.6
						c16.2,0,32.6-1.5,48.8-4.3C222.2,1015.2,319,900.1,319,765c0-16-1.4-32.3-4.2-48.3c-0.2-0.9-0.3-1.8-0.5-2.7l294.6-49.1
						L464.6,689l143.7-27.6l0.6,3c5.9,33.3,8.8,67.1,8.8,100.7c0,280.3-200.6,519.1-477,567.8C107.4,1338.7,73.5,1341.7,40,1341.7z"
						/>
				</g>
				<g>
					<path fill="#FFA500" d="M-238.4,1424.4l-12.5-5.2c-84.7-37.7-160.1-90.5-224.1-156.8l415.6-401c11.8,12.2,25.7,22.1,41.5,29.4
						l3.4,1.5L-133,1155.7L-238.4,1424.4z"/>
				</g>
				<g>
					<path fill="#FFA500" d="M-559.7,1155.8l-0.6-1l0,0c-50.5-77.7-85-163-102.5-253.6l566.9-110c3.4,17.3,10.1,33.9,20,49.1
						l1.4,2.2L-274.9,970L-559.7,1155.8z"/>
				</g>
				<g>
					<path fill="#FFA500" d="M-32.1,927.8c-50-22.2-86.5-65.4-100.2-118.4l14.5-3.7c12.6,48.6,46.1,88.1,91.9,108.5L-32.1,927.8z"/>
				</g>
				<g>
					<path fill="#FFA500" d="M-74,1022.1c-80.1-35.7-138.1-105.1-159.1-190.3l72.5-17.8c15.4,62.7,58,113.7,116.9,140L-74,1022.1z"
						/>
				</g>
				<g>
					<path fill="#FFA500" d="M-142.8,654.3l-43.9-26.4l-323.5-192.7l183.8,109.5l-183.7-109.6l0.6-1.1c23.1-38.4,50.2-74.4,80.5-107
						l313.1,291.4c-10,10.8-19,22.7-26.8,35.6l-0.1,0.2C-142.7,654.2-142.8,654.3-142.8,654.3z"/>
				</g>
				<g>
					<path fill="#FFA500" d="M-101.7,604.7l-139.7-163.7l-141.8-158.4l2.8-2.4c33.8-29.4,70.7-55.3,109.7-76.9L-63,577.3
						c-12.5,7-24.5,15.3-35.6,24.8L-101.7,604.7z"/>
				</g>
				<g>
					<path fill="#FFA500" d="M-221.7,607l-25.6-15.4c27.9-46.5,67.1-85.9,113.1-113.9l15.5,25.5C-160.6,528.7-196.2,564.6-221.7,607
						z"/>
				</g>
			</g>
		</g>
	</g>
</g>
</svg>
